<svg width="59" height="56" viewBox="0 0 59 56" fill="none" xmlns="http://www.w3.org/2000/svg">
<path d="M3 23.4167H5.91667C8.63465 23.4167 9.99364 23.4167 11.0657 23.8606C12.495 24.4527 13.6306 25.5884 14.2226 27.0176C14.6667 28.0897 14.6667 29.4486 14.6667 32.1667C14.6667 34.8847 14.6667 36.2436 14.2226 37.3157C13.6306 38.7449 12.495 39.8807 11.0657 40.4727C9.99364 40.9167 8.63465 40.9167 5.91667 40.9167H3M49.6667 11.75V8.83333C49.6667 5.61167 47.0551 3 43.8333 3H38C34.7782 3 32.1667 5.61167 32.1667 8.83333V11.75M12.3333 52.5833H46.1667C49.4336 52.5833 51.0673 52.5833 52.315 51.9475C53.4125 51.3884 54.305 50.4959 54.8642 49.3983C55.5 48.1506 55.5 46.517 55.5 43.25V21.0833C55.5 17.8163 55.5 16.1829 54.8642 14.9351C54.305 13.8374 53.4125 12.945 52.315 12.3858C51.0673 11.75 49.4336 11.75 46.1667 11.75H12.3333C9.06637 11.75 7.43287 11.75 6.18506 12.3858C5.08743 12.945 4.19505 13.8374 3.6358 14.9351C3 16.1829 3 17.8163 3 21.0833V43.25C3 46.517 3 48.1506 3.6358 49.3983C4.19505 50.4959 5.08743 51.3884 6.18506 51.9475C7.43287 52.5833 9.06635 52.5833 12.3333 52.5833ZM43.8333 32.1667C43.8333 36.9993 39.916 40.9167 35.0833 40.9167C30.2507 40.9167 26.3333 36.9993 26.3333 32.1667C26.3333 27.334 30.2507 23.4167 35.0833 23.4167C39.916 23.4167 43.8333 27.334 43.8333 32.1667Z" stroke="black" stroke-width="5.83333" stroke-linecap="round" stroke-linejoin="round"/>
<circle cx="35" cy="32" r="5.5" fill="black" stroke="#B0A8A8"/>
</svg>
